<?xml version="1.0" encoding="UTF-8" standalone="no"?>
<!DOCTYPE svg PUBLIC "-//W3C//DTD SVG 1.1//EN"
 "http://www.w3.org/Graphics/SVG/1.1/DTD/svg11.dtd">
<!-- Generated by graphviz version 11.0.0 (20240428.1522)
 -->
<!-- Title: G Pages: 1 -->
<svg width="1106pt" height="548pt"
 viewBox="0.00 0.00 1106.00 548.00" xmlns="http://www.w3.org/2000/svg" xmlns:xlink="http://www.w3.org/1999/xlink">
<g id="graph0" class="graph" transform="scale(1 1) rotate(0) translate(4 544)">
<title>G</title>
<polygon fill="white" stroke="none" points="-4,4 -4,-544 1102,-544 1102,4 -4,4"/>
<!-- 4 -->
<g id="node1" class="node">
<title>4</title>
<ellipse fill="none" stroke="black" cx="675" cy="-522" rx="27" ry="18"/>
<text text-anchor="middle" x="675" y="-516.58" font-family="Times New Roman,serif" font-size="14.00">4</text>
</g>
<!-- 1 -->
<g id="node2" class="node">
<title>1</title>
<ellipse fill="none" stroke="black" cx="459" cy="-450" rx="27" ry="18"/>
<text text-anchor="middle" x="459" y="-444.57" font-family="Times New Roman,serif" font-size="14.00">1</text>
</g>
<!-- 4&#45;&gt;1 -->
<g id="edge1" class="edge">
<title>4&#45;&gt;1</title>
<path fill="none" stroke="black" d="M649.85,-514.91C614.68,-506.1 549.04,-488.57 495,-468 493.47,-467.42 491.91,-466.79 490.34,-466.15"/>
<polygon fill="black" stroke="black" points="492.03,-463.07 481.47,-462.23 489.21,-469.47 492.03,-463.07"/>
</g>
<!-- 42 -->
<g id="node9" class="node">
<title>42</title>
<ellipse fill="none" stroke="black" cx="531" cy="-450" rx="27" ry="18"/>
<text text-anchor="middle" x="531" y="-444.57" font-family="Times New Roman,serif" font-size="14.00">42</text>
</g>
<!-- 4&#45;&gt;42 -->
<g id="edge41" class="edge">
<title>4&#45;&gt;42</title>
<path fill="none" stroke="black" d="M653.44,-510.52C629.34,-498.8 590.08,-479.72 562.53,-466.32"/>
<polygon fill="black" stroke="black" points="564.12,-463.21 553.6,-461.98 561.06,-469.5 564.12,-463.21"/>
</g>
<!-- 14 -->
<g id="node23" class="node">
<title>14</title>
<ellipse fill="none" stroke="black" cx="855" cy="-450" rx="27" ry="18"/>
<text text-anchor="middle" x="855" y="-444.57" font-family="Times New Roman,serif" font-size="14.00">14</text>
</g>
<!-- 4&#45;&gt;14 -->
<g id="edge14" class="edge">
<title>4&#45;&gt;14</title>
<path fill="none" stroke="black" d="M697.8,-512.13C729.09,-499.97 785.56,-478 821.62,-463.98"/>
<polygon fill="black" stroke="black" points="822.64,-467.34 830.69,-460.45 820.11,-460.81 822.64,-467.34"/>
</g>
<!-- 20 -->
<g id="node26" class="node">
<title>20</title>
<ellipse fill="none" stroke="black" cx="999" cy="-450" rx="27" ry="18"/>
<text text-anchor="middle" x="999" y="-444.57" font-family="Times New Roman,serif" font-size="14.00">20</text>
</g>
<!-- 4&#45;&gt;20 -->
<g id="edge20" class="edge">
<title>4&#45;&gt;20</title>
<path fill="none" stroke="black" d="M700.69,-515.45C757.88,-503.09 895.83,-473.29 962.16,-458.96"/>
<polygon fill="black" stroke="black" points="962.79,-462.4 971.82,-456.87 961.31,-455.56 962.79,-462.4"/>
</g>
<!-- 37 -->
<g id="node3" class="node">
<title>37</title>
<ellipse fill="none" stroke="black" cx="171" cy="-378" rx="27" ry="18"/>
<text text-anchor="middle" x="171" y="-372.57" font-family="Times New Roman,serif" font-size="14.00">37</text>
</g>
<!-- 2 -->
<g id="node4" class="node">
<title>2</title>
<ellipse fill="none" stroke="black" cx="99" cy="-306" rx="27" ry="18"/>
<text text-anchor="middle" x="99" y="-300.57" font-family="Times New Roman,serif" font-size="14.00">2</text>
</g>
<!-- 37&#45;&gt;2 -->
<g id="edge2" class="edge">
<title>37&#45;&gt;2</title>
<path fill="none" stroke="black" d="M156.08,-362.5C146.23,-352.92 133.14,-340.19 121.97,-329.34"/>
<polygon fill="black" stroke="black" points="124.59,-327 114.98,-322.54 119.71,-332.02 124.59,-327"/>
</g>
<!-- 18 -->
<g id="node29" class="node">
<title>18</title>
<ellipse fill="none" stroke="black" cx="171" cy="-306" rx="27" ry="18"/>
<text text-anchor="middle" x="171" y="-300.57" font-family="Times New Roman,serif" font-size="14.00">18</text>
</g>
<!-- 37&#45;&gt;18 -->
<g id="edge18" class="edge">
<title>37&#45;&gt;18</title>
<path fill="none" stroke="black" d="M171,-359.7C171,-352.41 171,-343.73 171,-335.54"/>
<polygon fill="black" stroke="black" points="174.5,-335.62 171,-325.62 167.5,-335.62 174.5,-335.62"/>
</g>
<!-- 35 -->
<g id="node5" class="node">
<title>35</title>
<ellipse fill="none" stroke="black" cx="603" cy="-234" rx="27" ry="18"/>
<text text-anchor="middle" x="603" y="-228.57" font-family="Times New Roman,serif" font-size="14.00">35</text>
</g>
<!-- 3 -->
<g id="node6" class="node">
<title>3</title>
<ellipse fill="none" stroke="black" cx="603" cy="-162" rx="27" ry="18"/>
<text text-anchor="middle" x="603" y="-156.57" font-family="Times New Roman,serif" font-size="14.00">3</text>
</g>
<!-- 35&#45;&gt;3 -->
<g id="edge3" class="edge">
<title>35&#45;&gt;3</title>
<path fill="none" stroke="black" d="M603,-215.7C603,-208.41 603,-199.73 603,-191.54"/>
<polygon fill="black" stroke="black" points="606.5,-191.62 603,-181.62 599.5,-191.62 606.5,-191.62"/>
</g>
<!-- 48 -->
<g id="node7" class="node">
<title>48</title>
<ellipse fill="none" stroke="black" cx="135" cy="-90" rx="27" ry="18"/>
<text text-anchor="middle" x="135" y="-84.58" font-family="Times New Roman,serif" font-size="14.00">48</text>
</g>
<!-- 5 -->
<g id="node8" class="node">
<title>5</title>
<ellipse fill="none" stroke="black" cx="135" cy="-18" rx="27" ry="18"/>
<text text-anchor="middle" x="135" y="-12.57" font-family="Times New Roman,serif" font-size="14.00">5</text>
</g>
<!-- 48&#45;&gt;5 -->
<g id="edge4" class="edge">
<title>48&#45;&gt;5</title>
<path fill="none" stroke="black" d="M135,-71.7C135,-64.41 135,-55.73 135,-47.54"/>
<polygon fill="black" stroke="black" points="138.5,-47.62 135,-37.62 131.5,-47.62 138.5,-47.62"/>
</g>
<!-- 42&#45;&gt;37 -->
<g id="edge36" class="edge">
<title>42&#45;&gt;37</title>
<path fill="none" stroke="black" d="M510.46,-438.1C505.5,-435.81 500.15,-433.6 495,-432 488.16,-429.87 292.18,-398.39 208.4,-384.98"/>
<polygon fill="black" stroke="black" points="209.04,-381.54 198.61,-383.41 207.93,-388.45 209.04,-381.54"/>
</g>
<!-- 6 -->
<g id="node10" class="node">
<title>6</title>
<ellipse fill="none" stroke="black" cx="315" cy="-378" rx="27" ry="18"/>
<text text-anchor="middle" x="315" y="-372.57" font-family="Times New Roman,serif" font-size="14.00">6</text>
</g>
<!-- 42&#45;&gt;6 -->
<g id="edge5" class="edge">
<title>42&#45;&gt;6</title>
<path fill="none" stroke="black" d="M509.97,-438.23C505.13,-435.98 499.95,-433.77 495,-432 432.87,-409.81 413.13,-418.19 351,-396 349.45,-395.45 347.89,-394.85 346.31,-394.22"/>
<polygon fill="black" stroke="black" points="347.98,-391.14 337.42,-390.38 345.2,-397.56 347.98,-391.14"/>
</g>
<!-- 7 -->
<g id="node11" class="node">
<title>7</title>
<ellipse fill="none" stroke="black" cx="387" cy="-378" rx="27" ry="18"/>
<text text-anchor="middle" x="387" y="-372.57" font-family="Times New Roman,serif" font-size="14.00">7</text>
</g>
<!-- 42&#45;&gt;7 -->
<g id="edge6" class="edge">
<title>42&#45;&gt;7</title>
<path fill="none" stroke="black" d="M509.44,-438.52C485.34,-426.8 446.08,-407.72 418.53,-394.32"/>
<polygon fill="black" stroke="black" points="420.12,-391.21 409.6,-389.98 417.06,-397.5 420.12,-391.21"/>
</g>
<!-- 26 -->
<g id="node14" class="node">
<title>26</title>
<ellipse fill="none" stroke="black" cx="459" cy="-378" rx="27" ry="18"/>
<text text-anchor="middle" x="459" y="-372.57" font-family="Times New Roman,serif" font-size="14.00">26</text>
</g>
<!-- 42&#45;&gt;26 -->
<g id="edge25" class="edge">
<title>42&#45;&gt;26</title>
<path fill="none" stroke="black" d="M516.08,-434.5C506.23,-424.92 493.14,-412.19 481.97,-401.34"/>
<polygon fill="black" stroke="black" points="484.59,-399 474.98,-394.54 479.71,-404.02 484.59,-399"/>
</g>
<!-- 29 -->
<g id="node34" class="node">
<title>29</title>
<ellipse fill="none" stroke="black" cx="531" cy="-378" rx="27" ry="18"/>
<text text-anchor="middle" x="531" y="-372.57" font-family="Times New Roman,serif" font-size="14.00">29</text>
</g>
<!-- 42&#45;&gt;29 -->
<g id="edge28" class="edge">
<title>42&#45;&gt;29</title>
<path fill="none" stroke="black" d="M531,-431.7C531,-424.41 531,-415.73 531,-407.54"/>
<polygon fill="black" stroke="black" points="534.5,-407.62 531,-397.62 527.5,-407.62 534.5,-407.62"/>
</g>
<!-- 41 -->
<g id="node44" class="node">
<title>41</title>
<ellipse fill="none" stroke="black" cx="603" cy="-378" rx="27" ry="18"/>
<text text-anchor="middle" x="603" y="-372.57" font-family="Times New Roman,serif" font-size="14.00">41</text>
</g>
<!-- 42&#45;&gt;41 -->
<g id="edge40" class="edge">
<title>42&#45;&gt;41</title>
<path fill="none" stroke="black" d="M545.92,-434.5C555.77,-424.92 568.86,-412.19 580.03,-401.34"/>
<polygon fill="black" stroke="black" points="582.29,-404.02 587.02,-394.54 577.41,-399 582.29,-404.02"/>
</g>
<!-- 43 -->
<g id="node45" class="node">
<title>43</title>
<ellipse fill="none" stroke="black" cx="675" cy="-378" rx="27" ry="18"/>
<text text-anchor="middle" x="675" y="-372.57" font-family="Times New Roman,serif" font-size="14.00">43</text>
</g>
<!-- 42&#45;&gt;43 -->
<g id="edge42" class="edge">
<title>42&#45;&gt;43</title>
<path fill="none" stroke="black" d="M552.56,-438.52C576.66,-426.8 615.92,-407.72 643.47,-394.32"/>
<polygon fill="black" stroke="black" points="644.94,-397.5 652.4,-389.98 641.88,-391.21 644.94,-397.5"/>
</g>
<!-- 19 -->
<g id="node30" class="node">
<title>19</title>
<ellipse fill="none" stroke="black" cx="243" cy="-306" rx="27" ry="18"/>
<text text-anchor="middle" x="243" y="-300.57" font-family="Times New Roman,serif" font-size="14.00">19</text>
</g>
<!-- 7&#45;&gt;19 -->
<g id="edge19" class="edge">
<title>7&#45;&gt;19</title>
<path fill="none" stroke="black" d="M365.44,-366.52C341.34,-354.8 302.08,-335.72 274.53,-322.32"/>
<polygon fill="black" stroke="black" points="276.12,-319.21 265.6,-317.98 273.06,-325.5 276.12,-319.21"/>
</g>
<!-- 49 -->
<g id="node12" class="node">
<title>49</title>
<ellipse fill="none" stroke="black" cx="387" cy="-306" rx="27" ry="18"/>
<text text-anchor="middle" x="387" y="-300.57" font-family="Times New Roman,serif" font-size="14.00">49</text>
</g>
<!-- 8 -->
<g id="node13" class="node">
<title>8</title>
<ellipse fill="none" stroke="black" cx="387" cy="-234" rx="27" ry="18"/>
<text text-anchor="middle" x="387" y="-228.57" font-family="Times New Roman,serif" font-size="14.00">8</text>
</g>
<!-- 49&#45;&gt;8 -->
<g id="edge7" class="edge">
<title>49&#45;&gt;8</title>
<path fill="none" stroke="black" d="M387,-287.7C387,-280.41 387,-271.73 387,-263.54"/>
<polygon fill="black" stroke="black" points="390.5,-263.62 387,-253.62 383.5,-263.62 390.5,-263.62"/>
</g>
<!-- 10 -->
<g id="node16" class="node">
<title>10</title>
<ellipse fill="none" stroke="black" cx="495" cy="-234" rx="27" ry="18"/>
<text text-anchor="middle" x="495" y="-228.57" font-family="Times New Roman,serif" font-size="14.00">10</text>
</g>
<!-- 49&#45;&gt;10 -->
<g id="edge9" class="edge">
<title>49&#45;&gt;10</title>
<path fill="none" stroke="black" d="M405.81,-292.81C422.59,-281.93 447.39,-265.86 466.59,-253.42"/>
<polygon fill="black" stroke="black" points="468.28,-256.49 474.77,-248.11 464.48,-250.61 468.28,-256.49"/>
</g>
<!-- 17 -->
<g id="node28" class="node">
<title>17</title>
<ellipse fill="none" stroke="black" cx="315" cy="-162" rx="27" ry="18"/>
<text text-anchor="middle" x="315" y="-156.57" font-family="Times New Roman,serif" font-size="14.00">17</text>
</g>
<!-- 8&#45;&gt;17 -->
<g id="edge17" class="edge">
<title>8&#45;&gt;17</title>
<path fill="none" stroke="black" d="M372.08,-218.5C362.23,-208.92 349.14,-196.19 337.97,-185.34"/>
<polygon fill="black" stroke="black" points="340.59,-183 330.98,-178.54 335.71,-188.02 340.59,-183"/>
</g>
<!-- 27 -->
<g id="node36" class="node">
<title>27</title>
<ellipse fill="none" stroke="black" cx="387" cy="-162" rx="27" ry="18"/>
<text text-anchor="middle" x="387" y="-156.57" font-family="Times New Roman,serif" font-size="14.00">27</text>
</g>
<!-- 8&#45;&gt;27 -->
<g id="edge26" class="edge">
<title>8&#45;&gt;27</title>
<path fill="none" stroke="black" d="M387,-215.7C387,-208.41 387,-199.73 387,-191.54"/>
<polygon fill="black" stroke="black" points="390.5,-191.62 387,-181.62 383.5,-191.62 390.5,-191.62"/>
</g>
<!-- 45 -->
<g id="node47" class="node">
<title>45</title>
<ellipse fill="none" stroke="black" cx="459" cy="-162" rx="27" ry="18"/>
<text text-anchor="middle" x="459" y="-156.57" font-family="Times New Roman,serif" font-size="14.00">45</text>
</g>
<!-- 8&#45;&gt;45 -->
<g id="edge44" class="edge">
<title>8&#45;&gt;45</title>
<path fill="none" stroke="black" d="M401.92,-218.5C411.77,-208.92 424.86,-196.19 436.03,-185.34"/>
<polygon fill="black" stroke="black" points="438.29,-188.02 443.02,-178.54 433.41,-183 438.29,-188.02"/>
</g>
<!-- 9 -->
<g id="node15" class="node">
<title>9</title>
<ellipse fill="none" stroke="black" cx="315" cy="-306" rx="27" ry="18"/>
<text text-anchor="middle" x="315" y="-300.57" font-family="Times New Roman,serif" font-size="14.00">9</text>
</g>
<!-- 26&#45;&gt;9 -->
<g id="edge8" class="edge">
<title>26&#45;&gt;9</title>
<path fill="none" stroke="black" d="M437.44,-366.52C413.34,-354.8 374.08,-335.72 346.53,-322.32"/>
<polygon fill="black" stroke="black" points="348.12,-319.21 337.6,-317.98 345.06,-325.5 348.12,-319.21"/>
</g>
<!-- 12 -->
<g id="node19" class="node">
<title>12</title>
<ellipse fill="none" stroke="black" cx="243" cy="-234" rx="27" ry="18"/>
<text text-anchor="middle" x="243" y="-228.57" font-family="Times New Roman,serif" font-size="14.00">12</text>
</g>
<!-- 9&#45;&gt;12 -->
<g id="edge11" class="edge">
<title>9&#45;&gt;12</title>
<path fill="none" stroke="black" d="M300.08,-290.5C290.23,-280.92 277.14,-268.19 265.97,-257.34"/>
<polygon fill="black" stroke="black" points="268.59,-255 258.98,-250.54 263.71,-260.02 268.59,-255"/>
</g>
<!-- 30 -->
<g id="node37" class="node">
<title>30</title>
<ellipse fill="none" stroke="black" cx="531" cy="-162" rx="27" ry="18"/>
<text text-anchor="middle" x="531" y="-156.57" font-family="Times New Roman,serif" font-size="14.00">30</text>
</g>
<!-- 10&#45;&gt;30 -->
<g id="edge29" class="edge">
<title>10&#45;&gt;30</title>
<path fill="none" stroke="black" d="M503.35,-216.76C507.58,-208.55 512.81,-198.37 517.58,-189.09"/>
<polygon fill="black" stroke="black" points="520.54,-190.99 522,-180.49 514.32,-187.79 520.54,-190.99"/>
</g>
<!-- 28 -->
<g id="node17" class="node">
<title>28</title>
<ellipse fill="none" stroke="black" cx="27" cy="-162" rx="27" ry="18"/>
<text text-anchor="middle" x="27" y="-156.57" font-family="Times New Roman,serif" font-size="14.00">28</text>
</g>
<!-- 11 -->
<g id="node18" class="node">
<title>11</title>
<ellipse fill="none" stroke="black" cx="27" cy="-90" rx="27" ry="18"/>
<text text-anchor="middle" x="27" y="-84.58" font-family="Times New Roman,serif" font-size="14.00">11</text>
</g>
<!-- 28&#45;&gt;11 -->
<g id="edge10" class="edge">
<title>28&#45;&gt;11</title>
<path fill="none" stroke="black" d="M27,-143.7C27,-136.41 27,-127.73 27,-119.54"/>
<polygon fill="black" stroke="black" points="30.5,-119.62 27,-109.62 23.5,-119.62 30.5,-119.62"/>
</g>
<!-- 31 -->
<g id="node24" class="node">
<title>31</title>
<ellipse fill="none" stroke="black" cx="171" cy="-162" rx="27" ry="18"/>
<text text-anchor="middle" x="171" y="-156.57" font-family="Times New Roman,serif" font-size="14.00">31</text>
</g>
<!-- 12&#45;&gt;31 -->
<g id="edge30" class="edge">
<title>12&#45;&gt;31</title>
<path fill="none" stroke="black" d="M228.08,-218.5C218.23,-208.92 205.14,-196.19 193.97,-185.34"/>
<polygon fill="black" stroke="black" points="196.59,-183 186.98,-178.54 191.71,-188.02 196.59,-183"/>
</g>
<!-- 33 -->
<g id="node39" class="node">
<title>33</title>
<ellipse fill="none" stroke="black" cx="243" cy="-162" rx="27" ry="18"/>
<text text-anchor="middle" x="243" y="-156.57" font-family="Times New Roman,serif" font-size="14.00">33</text>
</g>
<!-- 12&#45;&gt;33 -->
<g id="edge32" class="edge">
<title>12&#45;&gt;33</title>
<path fill="none" stroke="black" d="M243,-215.7C243,-208.41 243,-199.73 243,-191.54"/>
<polygon fill="black" stroke="black" points="246.5,-191.62 243,-181.62 239.5,-191.62 246.5,-191.62"/>
</g>
<!-- 38 -->
<g id="node20" class="node">
<title>38</title>
<ellipse fill="none" stroke="black" cx="855" cy="-378" rx="27" ry="18"/>
<text text-anchor="middle" x="855" y="-372.57" font-family="Times New Roman,serif" font-size="14.00">38</text>
</g>
<!-- 13 -->
<g id="node21" class="node">
<title>13</title>
<ellipse fill="none" stroke="black" cx="819" cy="-306" rx="27" ry="18"/>
<text text-anchor="middle" x="819" y="-300.57" font-family="Times New Roman,serif" font-size="14.00">13</text>
</g>
<!-- 38&#45;&gt;13 -->
<g id="edge12" class="edge">
<title>38&#45;&gt;13</title>
<path fill="none" stroke="black" d="M846.65,-360.76C842.42,-352.55 837.19,-342.37 832.42,-333.09"/>
<polygon fill="black" stroke="black" points="835.68,-331.79 828,-324.49 829.46,-334.99 835.68,-331.79"/>
</g>
<!-- 22 -->
<g id="node32" class="node">
<title>22</title>
<ellipse fill="none" stroke="black" cx="891" cy="-306" rx="27" ry="18"/>
<text text-anchor="middle" x="891" y="-300.57" font-family="Times New Roman,serif" font-size="14.00">22</text>
</g>
<!-- 38&#45;&gt;22 -->
<g id="edge22" class="edge">
<title>38&#45;&gt;22</title>
<path fill="none" stroke="black" d="M863.35,-360.76C867.58,-352.55 872.81,-342.37 877.58,-333.09"/>
<polygon fill="black" stroke="black" points="880.54,-334.99 882,-324.49 874.32,-331.79 880.54,-334.99"/>
</g>
<!-- 32 -->
<g id="node38" class="node">
<title>32</title>
<ellipse fill="none" stroke="black" cx="963" cy="-306" rx="27" ry="18"/>
<text text-anchor="middle" x="963" y="-300.57" font-family="Times New Roman,serif" font-size="14.00">32</text>
</g>
<!-- 38&#45;&gt;32 -->
<g id="edge31" class="edge">
<title>38&#45;&gt;32</title>
<path fill="none" stroke="black" d="M873.81,-364.81C890.59,-353.93 915.39,-337.86 934.59,-325.42"/>
<polygon fill="black" stroke="black" points="936.28,-328.49 942.77,-320.11 932.48,-322.61 936.28,-328.49"/>
</g>
<!-- 47 -->
<g id="node49" class="node">
<title>47</title>
<ellipse fill="none" stroke="black" cx="1035" cy="-306" rx="27" ry="18"/>
<text text-anchor="middle" x="1035" y="-300.57" font-family="Times New Roman,serif" font-size="14.00">47</text>
</g>
<!-- 38&#45;&gt;47 -->
<g id="edge46" class="edge">
<title>38&#45;&gt;47</title>
<path fill="none" stroke="black" d="M876.13,-366.51C880.97,-364.25 886.12,-361.96 891,-360 937.96,-341.16 952.04,-342.84 999,-324 1000.52,-323.39 1002.07,-322.74 1003.63,-322.08"/>
<polygon fill="black" stroke="black" points="1004.79,-325.4 1012.48,-318.11 1001.93,-319.01 1004.79,-325.4"/>
</g>
<!-- 25 -->
<g id="node22" class="node">
<title>25</title>
<ellipse fill="none" stroke="black" cx="819" cy="-234" rx="27" ry="18"/>
<text text-anchor="middle" x="819" y="-228.57" font-family="Times New Roman,serif" font-size="14.00">25</text>
</g>
<!-- 13&#45;&gt;25 -->
<g id="edge13" class="edge">
<title>13&#45;&gt;25</title>
<path fill="none" stroke="black" d="M819,-287.7C819,-280.41 819,-271.73 819,-263.54"/>
<polygon fill="black" stroke="black" points="822.5,-263.62 819,-253.62 815.5,-263.62 822.5,-263.62"/>
</g>
<!-- 14&#45;&gt;38 -->
<g id="edge37" class="edge">
<title>14&#45;&gt;38</title>
<path fill="none" stroke="black" d="M855,-431.7C855,-424.41 855,-415.73 855,-407.54"/>
<polygon fill="black" stroke="black" points="858.5,-407.62 855,-397.62 851.5,-407.62 858.5,-407.62"/>
</g>
<!-- 23 -->
<g id="node33" class="node">
<title>23</title>
<ellipse fill="none" stroke="black" cx="927" cy="-378" rx="27" ry="18"/>
<text text-anchor="middle" x="927" y="-372.57" font-family="Times New Roman,serif" font-size="14.00">23</text>
</g>
<!-- 14&#45;&gt;23 -->
<g id="edge23" class="edge">
<title>14&#45;&gt;23</title>
<path fill="none" stroke="black" d="M869.92,-434.5C879.77,-424.92 892.86,-412.19 904.03,-401.34"/>
<polygon fill="black" stroke="black" points="906.29,-404.02 911.02,-394.54 901.41,-399 906.29,-404.02"/>
</g>
<!-- 31&#45;&gt;48 -->
<g id="edge47" class="edge">
<title>31&#45;&gt;48</title>
<path fill="none" stroke="black" d="M162.65,-144.76C158.42,-136.55 153.19,-126.37 148.42,-117.09"/>
<polygon fill="black" stroke="black" points="151.68,-115.79 144,-108.49 145.46,-118.99 151.68,-115.79"/>
</g>
<!-- 15 -->
<g id="node25" class="node">
<title>15</title>
<ellipse fill="none" stroke="black" cx="207" cy="-90" rx="27" ry="18"/>
<text text-anchor="middle" x="207" y="-84.58" font-family="Times New Roman,serif" font-size="14.00">15</text>
</g>
<!-- 31&#45;&gt;15 -->
<g id="edge15" class="edge">
<title>31&#45;&gt;15</title>
<path fill="none" stroke="black" d="M179.35,-144.76C183.58,-136.55 188.81,-126.37 193.58,-117.09"/>
<polygon fill="black" stroke="black" points="196.54,-118.99 198,-108.49 190.32,-115.79 196.54,-118.99"/>
</g>
<!-- 50 -->
<g id="node50" class="node">
<title>50</title>
<ellipse fill="none" stroke="black" cx="207" cy="-18" rx="27" ry="18"/>
<text text-anchor="middle" x="207" y="-12.57" font-family="Times New Roman,serif" font-size="14.00">50</text>
</g>
<!-- 15&#45;&gt;50 -->
<g id="edge49" class="edge">
<title>15&#45;&gt;50</title>
<path fill="none" stroke="black" d="M207,-71.7C207,-64.41 207,-55.73 207,-47.54"/>
<polygon fill="black" stroke="black" points="210.5,-47.62 207,-37.62 203.5,-47.62 210.5,-47.62"/>
</g>
<!-- 16 -->
<g id="node27" class="node">
<title>16</title>
<ellipse fill="none" stroke="black" cx="999" cy="-378" rx="27" ry="18"/>
<text text-anchor="middle" x="999" y="-372.57" font-family="Times New Roman,serif" font-size="14.00">16</text>
</g>
<!-- 20&#45;&gt;16 -->
<g id="edge16" class="edge">
<title>20&#45;&gt;16</title>
<path fill="none" stroke="black" d="M999,-431.7C999,-424.41 999,-415.73 999,-407.54"/>
<polygon fill="black" stroke="black" points="1002.5,-407.62 999,-397.62 995.5,-407.62 1002.5,-407.62"/>
</g>
<!-- 46 -->
<g id="node48" class="node">
<title>46</title>
<ellipse fill="none" stroke="black" cx="1071" cy="-378" rx="27" ry="18"/>
<text text-anchor="middle" x="1071" y="-372.57" font-family="Times New Roman,serif" font-size="14.00">46</text>
</g>
<!-- 20&#45;&gt;46 -->
<g id="edge45" class="edge">
<title>20&#45;&gt;46</title>
<path fill="none" stroke="black" d="M1013.92,-434.5C1023.77,-424.92 1036.86,-412.19 1048.03,-401.34"/>
<polygon fill="black" stroke="black" points="1050.29,-404.02 1055.02,-394.54 1045.41,-399 1050.29,-404.02"/>
</g>
<!-- 21 -->
<g id="node31" class="node">
<title>21</title>
<ellipse fill="none" stroke="black" cx="99" cy="-234" rx="27" ry="18"/>
<text text-anchor="middle" x="99" y="-228.57" font-family="Times New Roman,serif" font-size="14.00">21</text>
</g>
<!-- 19&#45;&gt;21 -->
<g id="edge21" class="edge">
<title>19&#45;&gt;21</title>
<path fill="none" stroke="black" d="M221.44,-294.52C197.34,-282.8 158.08,-263.72 130.53,-250.32"/>
<polygon fill="black" stroke="black" points="132.12,-247.21 121.6,-245.98 129.06,-253.5 132.12,-247.21"/>
</g>
<!-- 21&#45;&gt;28 -->
<g id="edge27" class="edge">
<title>21&#45;&gt;28</title>
<path fill="none" stroke="black" d="M84.08,-218.5C74.23,-208.92 61.14,-196.19 49.97,-185.34"/>
<polygon fill="black" stroke="black" points="52.59,-183 42.98,-178.54 47.71,-188.02 52.59,-183"/>
</g>
<!-- 39 -->
<g id="node42" class="node">
<title>39</title>
<ellipse fill="none" stroke="black" cx="99" cy="-162" rx="27" ry="18"/>
<text text-anchor="middle" x="99" y="-156.57" font-family="Times New Roman,serif" font-size="14.00">39</text>
</g>
<!-- 21&#45;&gt;39 -->
<g id="edge38" class="edge">
<title>21&#45;&gt;39</title>
<path fill="none" stroke="black" d="M99,-215.7C99,-208.41 99,-199.73 99,-191.54"/>
<polygon fill="black" stroke="black" points="102.5,-191.62 99,-181.62 95.5,-191.62 102.5,-191.62"/>
</g>
<!-- 29&#45;&gt;49 -->
<g id="edge48" class="edge">
<title>29&#45;&gt;49</title>
<path fill="none" stroke="black" d="M509.44,-366.52C485.34,-354.8 446.08,-335.72 418.53,-322.32"/>
<polygon fill="black" stroke="black" points="420.12,-319.21 409.6,-317.98 417.06,-325.5 420.12,-319.21"/>
</g>
<!-- 24 -->
<g id="node35" class="node">
<title>24</title>
<ellipse fill="none" stroke="black" cx="459" cy="-306" rx="27" ry="18"/>
<text text-anchor="middle" x="459" y="-300.57" font-family="Times New Roman,serif" font-size="14.00">24</text>
</g>
<!-- 29&#45;&gt;24 -->
<g id="edge24" class="edge">
<title>29&#45;&gt;24</title>
<path fill="none" stroke="black" d="M516.08,-362.5C506.23,-352.92 493.14,-340.19 481.97,-329.34"/>
<polygon fill="black" stroke="black" points="484.59,-327 474.98,-322.54 479.71,-332.02 484.59,-327"/>
</g>
<!-- 34 -->
<g id="node40" class="node">
<title>34</title>
<ellipse fill="none" stroke="black" cx="531" cy="-306" rx="27" ry="18"/>
<text text-anchor="middle" x="531" y="-300.57" font-family="Times New Roman,serif" font-size="14.00">34</text>
</g>
<!-- 29&#45;&gt;34 -->
<g id="edge33" class="edge">
<title>29&#45;&gt;34</title>
<path fill="none" stroke="black" d="M531,-359.7C531,-352.41 531,-343.73 531,-335.54"/>
<polygon fill="black" stroke="black" points="534.5,-335.62 531,-325.62 527.5,-335.62 534.5,-335.62"/>
</g>
<!-- 36 -->
<g id="node41" class="node">
<title>36</title>
<ellipse fill="none" stroke="black" cx="603" cy="-306" rx="27" ry="18"/>
<text text-anchor="middle" x="603" y="-300.57" font-family="Times New Roman,serif" font-size="14.00">36</text>
</g>
<!-- 29&#45;&gt;36 -->
<g id="edge35" class="edge">
<title>29&#45;&gt;36</title>
<path fill="none" stroke="black" d="M545.92,-362.5C555.77,-352.92 568.86,-340.19 580.03,-329.34"/>
<polygon fill="black" stroke="black" points="582.29,-332.02 587.02,-322.54 577.41,-327 582.29,-332.02"/>
</g>
<!-- 40 -->
<g id="node43" class="node">
<title>40</title>
<ellipse fill="none" stroke="black" cx="675" cy="-306" rx="27" ry="18"/>
<text text-anchor="middle" x="675" y="-300.57" font-family="Times New Roman,serif" font-size="14.00">40</text>
</g>
<!-- 29&#45;&gt;40 -->
<g id="edge39" class="edge">
<title>29&#45;&gt;40</title>
<path fill="none" stroke="black" d="M552.56,-366.52C576.66,-354.8 615.92,-335.72 643.47,-322.32"/>
<polygon fill="black" stroke="black" points="644.94,-325.5 652.4,-317.98 641.88,-319.21 644.94,-325.5"/>
</g>
<!-- 44 -->
<g id="node46" class="node">
<title>44</title>
<ellipse fill="none" stroke="black" cx="747" cy="-306" rx="27" ry="18"/>
<text text-anchor="middle" x="747" y="-300.57" font-family="Times New Roman,serif" font-size="14.00">44</text>
</g>
<!-- 29&#45;&gt;44 -->
<g id="edge43" class="edge">
<title>29&#45;&gt;44</title>
<path fill="none" stroke="black" d="M552.03,-366.23C556.87,-363.98 562.05,-361.77 567,-360 629.13,-337.81 648.87,-346.19 711,-324 712.55,-323.45 714.11,-322.85 715.69,-322.22"/>
<polygon fill="black" stroke="black" points="716.8,-325.56 724.58,-318.38 714.02,-319.14 716.8,-325.56"/>
</g>
<!-- 36&#45;&gt;35 -->
<g id="edge34" class="edge">
<title>36&#45;&gt;35</title>
<path fill="none" stroke="black" d="M603,-287.7C603,-280.41 603,-271.73 603,-263.54"/>
<polygon fill="black" stroke="black" points="606.5,-263.62 603,-253.62 599.5,-263.62 606.5,-263.62"/>
</g>
</g>
</svg>
